<svg width="100" height="102" viewBox="0 0 100 102" fill="none" xmlns="http://www.w3.org/2000/svg">
<path d="M31.625 16.5L65.375 33.75V0L31.625 16.5Z" fill="#BC4425"/>
<path d="M66.125 68.25V102L33.125 84.75L66.125 68.25Z" fill="#BC4425"/>
<path d="M33.125 51L33.875 84.75L0.125 68.25L33.125 51Z" fill="#BC4425"/>
<path d="M32.375 16.5L33.125 51L0.125 34.5L32.375 16.5Z" fill="#BC4425"/>
<path d="M99.875 85.5L66.125 68.25V102L99.875 85.5Z" fill="#FB6D48"/>
<path d="M66.125 68.2503L33.125 51.0003L33.875 84.75L66.125 68.2503Z" fill="#FB6D48"/>
<path d="M33.125 50.9992L0.125 34.4992V68.4085L33.125 50.9992Z" fill="#FB6D48"/>
<path d="M65.375 33.75L32.375 16.5L33.125 51L65.375 33.75Z" fill="#FB6D48"/>
</svg>
